<?xml version="1.0" standalone="no"?>
<!DOCTYPE svg PUBLIC "-//W3C//DTD SVG 20010904//EN"
 "http://www.w3.org/TR/2001/REC-SVG-20010904/DTD/svg10.dtd">
<svg version="1.0" xmlns="http://www.w3.org/2000/svg"
 width="1920.000000pt" height="1920.000000pt" viewBox="0 0 1920.000000 1920.000000"
 preserveAspectRatio="xMidYMid meet">

<g transform="translate(0.000000,1920.000000) scale(0.100000,-0.100000)"
fill="#000000" stroke="none">
<path d="M7091 12885 c-211 -59 -373 -228 -417 -434 -21 -99 -21 -5603 0
-5702 23 -108 71 -194 156 -280 122 -124 256 -175 435 -167 110 6 183 28 290
90 33 20 164 95 290 168 127 73 372 215 545 315 173 100 479 277 680 392 201
116 453 261 560 323 107 62 269 156 360 208 91 52 266 153 390 225 124 71 358
206 520 300 162 93 351 202 420 242 149 86 579 335 810 468 239 138 313 213
378 385 22 58 26 83 26 182 0 99 -4 124 -26 182 -70 186 -130 242 -468 437
-389 225 -999 577 -1765 1019 -214 124 -489 282 -610 352 -121 70 -411 237
-645 372 -693 399 -1294 747 -1465 846 -113 65 -179 85 -300 88 -77 3 -126 -1
-164 -11z"/>
</g>
</svg>
